<svg viewBox="0 0 64 64" xmlns="http://www.w3.org/2000/svg" role="img" aria-label="LeadLion">
  <defs>
    <linearGradient id="ll-gold" x1="0" y1="0" x2="1" y2="1">
      <stop offset="0" stop-color="#fcd34d"/>
      <stop offset="1" stop-color="#e08a08"/>
    </linearGradient>
  </defs>
  <!-- ground shadow -->
  <ellipse cx="32" cy="61.5" rx="7" ry="1.6" fill="#000" opacity="0.18"/>
  <!-- map pin -->
  <path d="M32 3 C17.6 3 6 14.6 6 29 C6 46 32 61 32 61 C32 61 58 46 58 29 C58 14.6 46.4 3 32 3 Z" fill="url(#ll-gold)"/>
  <!-- lion mane (spiky burst) -->
  <path d="M32 5 L36.3 11.7 L43.8 8.8 L43.3 16.8 L51 18.8 L46 25 L51 31.2 L43.3 33.2 L43.8 41.2 L36.3 38.3 L32 45 L27.7 38.3 L20.2 41.2 L20.7 33.2 L13 31.2 L18 25 L13 18.8 L20.7 16.8 L20.2 8.8 L27.7 11.7 Z" fill="#1a1205"/>
  <!-- ears -->
  <circle cx="23.5" cy="16.5" r="3.4" fill="#1a1205"/>
  <circle cx="40.5" cy="16.5" r="3.4" fill="#1a1205"/>
  <!-- face -->
  <circle cx="32" cy="26" r="12.4" fill="#fef3c7"/>
  <!-- brows -->
  <path d="M24.5 21.5 Q27.5 20 30 22" stroke="#1a1205" stroke-width="1.6" fill="none" stroke-linecap="round"/>
  <path d="M39.5 21.5 Q36.5 20 34 22" stroke="#1a1205" stroke-width="1.6" fill="none" stroke-linecap="round"/>
  <!-- eyes -->
  <circle cx="27" cy="25" r="2.2" fill="#1a1205"/>
  <circle cx="37" cy="25" r="2.2" fill="#1a1205"/>
  <!-- muzzle + nose -->
  <path d="M32 29.5 L35 32.5 Q32 35 29 32.5 Z" fill="#c2410c"/>
  <path d="M32 34 L32 36" stroke="#1a1205" stroke-width="1.4" stroke-linecap="round"/>
  <path d="M32 36 Q28.5 38.5 26 36.5" stroke="#1a1205" stroke-width="1.4" fill="none" stroke-linecap="round"/>
  <path d="M32 36 Q35.5 38.5 38 36.5" stroke="#1a1205" stroke-width="1.4" fill="none" stroke-linecap="round"/>
</svg>
